<svg xmlns="http://www.w3.org/2000/svg" viewBox="0 0 560.86 228.67"><defs><style>.cls-1{fill:none;stroke:#1d1d1b;stroke-miterlimit:10;stroke-width:0.25px;}</style></defs><g id="Capa_2" data-name="Capa 2"><g id="Capa_1-2" data-name="Capa 1"><path class="cls-1" d="M35.17,4.28C39.39-3.5,49.54,2,49.54,2V32.5l-14.37-4Z"/><polygon class="cls-1" points="63.92 36.19 49.55 32.5 49.55 2.04 63.92 5.6 63.92 36.19"/><polygon class="cls-1" points="78.29 40.15 63.92 36.19 63.92 5.6 78.29 9.42 78.29 40.15"/><polygon class="cls-1" points="92.67 12.85 92.67 43.97 78.29 40.15 78.29 9.42 92.67 12.85"/><polygon class="cls-1" points="107.17 17.46 92.67 12.85 92.67 43.97 107.17 47.66 107.17 17.46"/><polygon class="cls-1" points="121.81 21.02 107.17 17.46 107.17 47.66 121.81 51.35 121.81 21.02"/><polygon class="cls-1" points="135.65 54.65 121.81 51.35 121.81 21.02 135.65 24.19 135.65 54.65"/><polygon class="cls-1" points="149.76 58.74 135.65 54.65 135.65 24.19 149.76 28.15 149.76 58.74"/><polygon class="cls-1" points="164.14 62.43 149.76 58.74 149.76 28.15 164.14 31.97 164.14 62.43"/><polygon class="cls-1" points="178.64 65.86 164.14 62.43 164.14 31.97 178.64 35.66 178.64 65.86"/><polygon class="cls-1" points="193.02 69.82 178.64 65.86 178.64 35.66 193.02 39.35 193.02 69.82"/><polygon class="cls-1" points="207.52 73.77 193.02 69.82 193.02 39.35 207.52 43.18 207.52 73.77"/><polygon class="cls-1" points="221.76 77.33 207.52 73.77 207.52 43.18 222.42 47.66 221.76 77.33"/><polygon class="cls-1" points="235.87 81.03 221.76 77.33 222.42 47.66 236.93 50.83 235.87 81.03"/><polygon class="cls-1" points="250.25 84.98 235.87 81.03 236.93 50.83 251.17 54.65 250.25 84.98"/><polygon class="cls-1" points="264.49 88.81 250.25 84.98 251.17 54.65 265.15 58.08 264.49 88.81"/><polygon class="cls-1" points="265.15 120.19 264.49 88.81 250.25 84.98 250.25 115.97 265.15 120.19"/><polygon class="cls-1" points="235.87 111.62 235.87 81.03 250.25 84.98 250.25 115.97 235.87 111.62"/><polygon class="cls-1" points="221.76 107.79 221.76 77.33 235.87 81.03 235.87 111.62 221.76 107.79"/><polygon class="cls-1" points="207.52 73.77 207.52 104.23 221.76 107.79 221.76 77.33 207.52 73.77"/><polygon class="cls-1" points="193.02 100.28 193.02 69.82 207.52 73.77 207.52 104.23 193.02 100.28"/><polygon class="cls-1" points="178.64 96.58 178.64 65.86 193.02 69.82 193.02 100.28 178.64 96.58"/><polygon class="cls-1" points="164.14 62.43 164.14 93.03 178.64 96.58 178.64 65.86 164.14 62.43"/><polygon class="cls-1" points="149.76 58.74 149.76 88.81 164.14 93.03 164.14 62.43 149.76 58.74"/><polygon class="cls-1" points="135.65 54.65 135.65 85.9 149.76 88.81 149.76 58.74 135.65 54.65"/><polygon class="cls-1" points="121.81 51.35 121.81 81.68 135.65 85.9 135.65 54.65 121.81 51.35"/><polygon class="cls-1" points="107.17 47.66 107.17 78.39 121.81 81.68 121.81 51.35 107.17 47.66"/><polygon class="cls-1" points="92.67 43.97 92.67 74.56 107.17 78.39 107.17 47.66 92.67 43.97"/><polygon class="cls-1" points="78.29 40.15 78.29 69.82 92.67 74.56 92.67 43.97 78.29 40.15"/><polygon class="cls-1" points="63.92 36.19 63.92 65.86 78.29 69.82 78.29 40.15 63.92 36.19"/><polygon class="cls-1" points="49.55 32.5 49.55 62.43 63.92 65.86 63.92 36.19 49.55 32.5"/><path class="cls-1" d="M35.17,28.54V56a5.57,5.57,0,0,0,4.09,4.29l10.28,2.17V32.5Z"/><polygon class="cls-1" points="0.16 64.67 5.9 93.03 19.35 97.38 19.35 68.63 0.16 64.67"/><polygon class="cls-1" points="35.17 73.77 19.35 68.63 19.35 97.38 35.17 101.73 35.17 73.77"/><polygon class="cls-1" points="49.55 77.33 35.17 73.77 35.17 101.73 49.55 105.49 49.55 77.33"/><polygon class="cls-1" points="63.92 81.03 49.55 77.33 49.55 105.49 63.92 109.44 63.92 81.03"/><polygon class="cls-1" points="78.29 85.18 63.92 81.03 63.92 109.44 78.29 113.4 78.29 85.18"/><polygon class="cls-1" points="92.67 88.81 78.29 85.18 78.29 113.4 92.67 117.16 92.67 88.81"/><polygon class="cls-1" points="107.17 92.23 92.67 88.81 92.67 117.16 107.17 121.51 107.17 92.23"/><polygon class="cls-1" points="121.02 96.58 107.17 92.23 107.17 121.51 121.81 124.9 121.02 96.58"/><polygon class="cls-1" points="135.65 129.42 121.81 124.9 121.02 96.58 135.65 99.55 135.65 129.42"/><polygon class="cls-1" points="149.76 132.59 135.65 129.42 135.65 99.55 150.49 102.58 149.76 132.59"/><polygon class="cls-1" points="164.14 137.13 149.76 132.59 150.49 102.58 164.93 106.67 164.14 137.13"/><polygon class="cls-1" points="178.64 141.29 164.14 137.13 164.93 106.67 178.64 110.83 178.64 141.29"/><polygon class="cls-1" points="193.02 144.26 178.64 141.29 178.64 110.83 193.81 114.19 193.02 144.26"/><polygon class="cls-1" points="207.52 148.61 193.02 144.26 193.81 114.19 207.52 118.15 207.52 148.61"/><polygon class="cls-1" points="221.76 151.97 207.52 148.61 207.52 118.15 221.76 121.51 221.76 151.97"/><polygon class="cls-1" points="235.87 156.12 221.76 151.97 221.76 121.51 235.87 126.06 235.87 156.12"/><polygon class="cls-1" points="250.25 160.28 235.87 156.12 235.87 126.06 251.17 129.42 250.25 160.28"/><polygon class="cls-1" points="265.15 164.23 250.25 160.28 251.17 129.42 265.15 133.38 265.15 164.23"/><polygon class="cls-1" points="280.25 168.19 265.15 164.23 265.15 133.38 280.25 137.13 280.25 168.19"/><path class="cls-1" d="M296.47,172.54l-16.22-4.35V137.13l11.87,3.17s4.35,1,4.35,4.94Z"/><path class="cls-1" d="M310.71,57.42V86.3s-.4,3.23,5.14,4.48l10.29,3.7V62.17Z"/><polygon class="cls-1" points="341.57 65.93 326.14 62.17 326.14 94.47 341.57 98.5 341.57 65.93"/><polygon class="cls-1" points="356.6 69.68 341.57 65.93 341.57 98.5 356.6 102.58 356.6 69.68"/><polygon class="cls-1" points="371.24 73.77 356.6 69.68 356.6 102.58 371.24 106.47 371.24 73.77"/><polygon class="cls-1" points="385.87 77.33 371.24 73.77 371.24 106.47 385.87 110.83 385.87 77.33"/><polygon class="cls-1" points="400.51 81.03 385.87 77.33 385.87 110.83 400.51 114.58 400.51 81.03"/><polygon class="cls-1" points="415.15 84.98 400.51 81.03 400.51 114.58 415.15 118.15 415.15 84.98"/><polygon class="cls-1" points="429.79 88.81 415.15 84.98 415.15 118.15 429.79 122.69 429.79 88.81"/><polygon class="cls-1" points="444.23 92.3 429.79 88.81 429.79 122.69 444.23 127.25 444.23 92.3"/><polygon class="cls-1" points="459.06 95.96 444.23 92.3 444.23 127.25 459.06 131 459.06 95.96"/><polygon class="cls-1" points="473.7 99.58 459.06 95.96 459.06 131 473.7 134.96 473.7 99.58"/><polygon class="cls-1" points="487.94 103.84 473.7 99.58 473.7 134.96 487.94 138.72 487.94 103.84"/><polygon class="cls-1" points="502.18 108.03 487.94 103.84 487.94 138.72 502.18 142.87 502.18 108.03"/><polygon class="cls-1" points="517.02 111.65 502.18 108.03 502.18 142.87 517.02 146.83 517.02 111.65"/><polygon class="cls-1" points="531.65 115.46 517.02 111.65 517.02 146.83 531.65 150.78 531.65 115.46"/><polygon class="cls-1" points="546.69 119.15 531.65 115.46 531.65 150.78 546.69 154.84 546.69 119.15"/><polygon class="cls-1" points="560.73 123.35 546.69 119.15 546.69 154.84 560.73 158.1 560.73 123.35"/><polygon class="cls-1" points="341.57 112.41 342.36 142.87 356.6 146.83 356.6 115.46 341.57 110.63 341.57 112.41"/><polygon class="cls-1" points="371.24 150.78 356.6 146.83 356.6 115.46 371.24 120.19 371.24 150.78"/><polygon class="cls-1" points="385.87 154.84 371.24 150.78 371.24 120.19 385.87 124.9 385.87 154.84"/><polygon class="cls-1" points="400.51 159.09 385.87 154.84 385.87 124.9 400.51 128.73 400.51 159.09"/><polygon class="cls-1" points="415.15 162.85 400.51 159.09 400.51 128.73 415.15 133.12 415.15 162.85"/><polygon class="cls-1" points="429.79 166.81 415.15 162.85 415.15 133.12 429.79 136.34 429.79 166.81"/><polygon class="cls-1" points="444.23 171.35 429.79 166.81 429.79 136.34 444.23 140.69 444.23 171.35"/><polygon class="cls-1" points="459.06 174.91 444.23 171.35 444.23 140.69 459.06 144.45 459.06 174.91"/><polygon class="cls-1" points="473.7 178.87 459.06 174.91 459.06 144.45 473.7 148.21 473.7 178.87"/><polygon class="cls-1" points="487.94 182.83 473.7 178.87 473.7 148.21 487.94 152.17 487.94 182.83"/><polygon class="cls-1" points="502.18 186.78 487.94 182.83 487.94 152.17 502.18 155.73 502.18 186.78"/><polygon class="cls-1" points="517.02 190.74 502.18 186.78 502.18 155.73 517.02 160.28 517.02 190.74"/><polygon class="cls-1" points="531.65 194.5 517.02 190.74 517.02 160.28 531.65 164.43 531.65 194.5"/><polygon class="cls-1" points="546.69 198.65 531.65 194.5 531.65 164.43 546.69 168.19 546.69 198.65"/><polygon class="cls-1" points="560.73 202.41 546.69 198.65 546.69 168.19 560.73 172.34 560.73 202.41"/><polygon class="cls-1" points="341.57 173.23 356.6 177.39 356.6 146.83 342.36 142.87 341.57 173.23"/><polygon class="cls-1" points="371.24 181.54 356.6 177.39 356.6 146.83 371.24 150.78 371.24 181.54"/><polygon class="cls-1" points="385.87 185.3 371.24 181.54 371.24 150.78 385.87 154.84 385.87 185.3"/><polygon class="cls-1" points="400.51 189.35 385.87 185.3 385.87 154.84 400.51 159.09 400.51 189.35"/><polygon class="cls-1" points="415.15 193.11 400.51 189.35 400.51 159.09 415.15 162.85 415.15 193.11"/><polygon class="cls-1" points="429.79 197.46 415.15 193.11 415.15 162.85 429.79 166.81 429.79 197.46"/><polygon class="cls-1" points="444.23 201.03 429.79 197.46 429.79 166.81 444.23 171.35 444.23 201.03"/><polygon class="cls-1" points="459.06 205.18 444.23 201.03 444.23 171.35 459.06 174.91 459.06 205.18"/><polygon class="cls-1" points="473.7 209.33 459.06 205.18 459.06 174.91 473.7 178.87 473.7 209.33"/><polygon class="cls-1" points="487.94 212.89 473.7 209.33 473.7 178.87 487.94 182.83 487.94 212.89"/><polygon class="cls-1" points="502.18 217.44 487.94 212.89 487.94 182.83 502.18 186.78 502.18 217.44"/><polygon class="cls-1" points="517.02 221.79 502.18 217.44 502.18 186.78 517.02 190.74 517.02 221.79"/><polygon class="cls-1" points="531.65 225.55 517.02 221.79 517.02 190.74 531.65 194.5 531.65 225.55"/><polygon class="cls-1" points="546.69 228.52 531.65 225.55 531.65 194.5 546.69 198.65 546.69 228.52"/><path class="cls-1" d="M560.73,225.55V202.41l-14-3.76v29.87S559.35,228.72,560.73,225.55Z"/></g></g></svg>