<svg xmlns="http://www.w3.org/2000/svg" viewBox="0 0 594.94 381.43"><defs><style>.cls-1{fill:none;stroke:#1d1d1b;stroke-miterlimit:10;stroke-width:0.25px;}</style></defs><g id="Capa_2" data-name="Capa 2"><g id="Capa_1-2" data-name="Capa 1"><polygon class="cls-1" points="53.63 0.15 69.85 4.5 59.56 31.4 43.34 25.47 53.63 0.15"/><polygon class="cls-1" points="86.07 11.03 69.85 4.5 59.56 31.4 75.59 36.94 86.07 11.03"/><polygon class="cls-1" points="101.7 16.77 86.07 11.03 75.59 36.94 91.61 43.07 101.7 16.77"/><polygon class="cls-1" points="118.11 22.3 101.7 16.77 91.61 43.07 107.83 48.61 118.11 22.3"/><polygon class="cls-1" points="134.13 27.05 118.11 22.3 107.83 48.61 124.25 54.15 134.13 27.05"/><polygon class="cls-1" points="150.16 32.69 134.13 27.05 124.25 54.15 139.48 60.28 150.16 32.69"/><polygon class="cls-1" points="165.98 39.31 150.16 32.69 139.48 60.28 155.89 66.22 165.98 39.31"/><polygon class="cls-1" points="182.4 45.25 165.98 39.31 155.89 66.22 172.11 71.56 182.4 45.25"/><polygon class="cls-1" points="198.62 51.18 182.4 45.25 172.11 71.56 188.33 77.29 198.62 51.18"/><polygon class="cls-1" points="214.44 56.92 198.62 51.18 188.33 77.29 204.55 83.03 214.44 56.92"/><polygon class="cls-1" points="211.87 85.2 229.28 86.98 233.43 59.09 216.42 57.12 211.87 85.2"/><polygon class="cls-1" points="245.89 89.36 229.28 86.98 233.43 59.09 250.64 61.27 245.89 89.36"/><polygon class="cls-1" points="263.1 92.13 245.89 89.36 250.64 61.27 267.65 63.45 263.1 92.13"/><polygon class="cls-1" points="279.92 94.7 263.1 92.13 267.65 63.45 284.86 65.23 279.92 94.7"/><polygon class="cls-1" points="297.12 97.07 279.92 94.7 284.86 65.23 301.67 67.11 297.12 97.07"/><polygon class="cls-1" points="314.53 99.84 297.12 97.07 301.67 67.11 318.88 69.58 314.53 99.84"/><polygon class="cls-1" points="331.74 102.61 314.53 99.84 318.88 69.58 335.69 71.56 331.74 102.61"/><polygon class="cls-1" points="348.55 104.98 331.74 102.61 335.69 71.56 353.3 74.23 348.55 104.98"/><polygon class="cls-1" points="365.76 107.75 348.55 104.98 353.3 74.23 369.92 76.7 365.76 107.75"/><polygon class="cls-1" points="383.17 109.93 365.76 107.75 369.92 76.7 387.52 79.07 383.17 109.93"/><polygon class="cls-1" points="400.18 112.5 383.17 109.93 387.52 79.07 405.12 81.15 400.18 112.5"/><rect class="cls-1" x="405.12" y="86.09" width="17.21" height="27.59"/><polygon class="cls-1" points="439.54 114.87 422.33 113.69 422.33 86.09 439.54 86.09 439.54 114.87"/><rect class="cls-1" x="439.54" y="86.09" width="17.21" height="28.78"/><rect class="cls-1" x="456.75" y="86.09" width="17.41" height="28.78"/><rect class="cls-1" x="474.16" y="86.09" width="17.21" height="28.78"/><rect class="cls-1" x="491.37" y="86.09" width="17.21" height="28.78"/><polygon class="cls-1" points="525.39 116.06 508.57 114.87 508.57 86.09 526.38 86.09 525.39 116.06"/><polygon class="cls-1" points="543.39 117.05 525.39 116.06 526.38 86.09 543.39 86.09 543.39 117.05"/><polygon class="cls-1" points="560.79 117.05 543.39 117.05 543.39 86.09 560.79 86.79 560.79 117.05"/><polygon class="cls-1" points="576.42 118.04 560.79 117.05 560.79 86.79 577.41 86.79 576.42 118.04"/><polygon class="cls-1" points="594.82 118.04 576.42 118.04 577.41 86.79 594.82 86.79 594.82 118.04"/><polygon class="cls-1" points="53.43 98.85 69.85 105.38 81.12 77.29 64.91 71.56 53.43 98.85"/><polygon class="cls-1" points="86.07 110.52 69.85 105.38 81.12 77.29 97.34 83.03 86.07 110.52"/><polygon class="cls-1" points="101.7 116.46 86.07 110.52 97.34 83.03 113.37 89.36 101.7 116.46"/><polygon class="cls-1" points="118.11 122.79 101.7 116.46 113.37 89.36 128.99 94.7 118.11 122.79"/><polygon class="cls-1" points="134.13 128.92 118.11 122.79 128.99 94.7 145.61 99.84 134.13 128.92"/><polygon class="cls-1" points="150.16 134.66 134.13 128.92 145.61 99.84 162.42 106.07 150.16 134.66"/><polygon class="cls-1" points="167.17 140.98 150.16 134.66 162.42 106.07 178.64 112.5 167.17 140.98"/><polygon class="cls-1" points="184.18 146.52 167.17 140.98 178.64 112.5 194.47 117.25 184.18 146.52"/><polygon class="cls-1" points="190.11 148.7 194.47 117.25 211.87 120.41 207.32 152.06 190.11 148.7"/><polygon class="cls-1" points="229.28 124.17 224.33 155.03 207.32 152.06 211.87 120.41 229.28 124.17"/><polygon class="cls-1" points="241.74 157.01 224.33 155.03 229.28 124.17 245.89 126.55 241.74 157.01"/><polygon class="cls-1" points="258.75 159.78 241.74 157.01 245.89 126.55 263.1 129.51 258.75 159.78"/><polygon class="cls-1" points="275.56 161.95 258.75 159.78 263.1 129.51 279.92 131.88 275.56 161.95"/><polygon class="cls-1" points="292.57 164.72 275.56 161.95 279.92 131.88 297.92 134.66 292.57 164.72"/><polygon class="cls-1" points="309.78 166.9 292.57 164.72 297.92 134.66 314.53 136.44 309.78 166.9"/><polygon class="cls-1" points="327.78 169.07 309.78 166.9 314.53 136.44 331.74 139.01 327.78 169.07"/><polygon class="cls-1" points="345.98 171.05 327.78 169.07 331.74 139.01 349.34 141.58 345.98 171.05"/><polygon class="cls-1" points="361.61 174.02 345.98 171.05 349.34 141.58 366.75 144.54 361.61 174.02"/><polygon class="cls-1" points="379.61 175.8 361.61 174.02 366.75 144.54 383.17 146.52 379.61 175.8"/><polygon class="cls-1" points="396.82 178.37 379.61 175.8 383.17 146.52 400.38 149.49 396.82 178.37"/><polygon class="cls-1" points="413.73 181.34 396.82 178.37 400.38 149.49 418.38 152.75 413.73 181.34"/><polygon class="cls-1" points="430.94 183.91 413.73 181.34 418.38 152.75 434.99 155.03 430.94 183.91"/><polygon class="cls-1" points="40.97 141.97 57.78 146.52 49.38 175.4 31.87 170.65 40.97 141.97"/><polygon class="cls-1" points="74.4 152.06 57.78 146.52 49.38 175.4 65.3 179.75 74.4 152.06"/><polygon class="cls-1" points="91.01 157.01 74.4 152.06 65.3 179.75 82.11 184.9 91.01 157.01"/><polygon class="cls-1" points="107.43 161.95 91.01 157.01 82.11 184.9 98.93 189.64 107.43 161.95"/><polygon class="cls-1" points="123.85 166.1 107.43 161.95 98.93 189.64 115.34 194.39 123.85 166.1"/><polygon class="cls-1" points="140.66 170.46 123.85 166.1 115.34 194.39 131.86 198.74 140.66 170.46"/><polygon class="cls-1" points="157.87 175.4 140.66 170.46 131.86 198.74 148.28 203.69 157.87 175.4"/><polygon class="cls-1" points="165.39 208.83 148.28 203.69 157.87 175.4 174.49 179.75 165.39 208.83"/><polygon class="cls-1" points="182.99 213.38 165.39 208.83 174.49 179.75 190.11 184.9 182.99 213.38"/><polygon class="cls-1" points="199.01 218.52 182.99 213.38 190.11 184.9 207.32 189.64 199.01 218.52"/><polygon class="cls-1" points="216.03 222.68 199.01 218.52 207.32 189.64 224.33 194.39 216.03 222.68"/><polygon class="cls-1" points="232.64 227.62 216.03 222.68 224.33 194.39 241.74 199.53 232.64 227.62"/><polygon class="cls-1" points="250.25 232.57 232.64 227.62 241.74 199.53 257.96 203.69 250.25 232.57"/><polygon class="cls-1" points="266.66 237.71 250.25 232.57 257.96 203.69 275.56 208.83 266.66 237.71"/><polygon class="cls-1" points="283.28 242.65 266.66 237.71 275.56 208.83 291.39 213.38 283.28 242.65"/><polygon class="cls-1" points="300.29 247.2 283.28 242.65 291.39 213.38 308.2 218.52 300.29 247.2"/><polygon class="cls-1" points="317.3 252.15 300.29 247.2 308.2 218.52 325.61 222.68 317.3 252.15"/><polygon class="cls-1" points="334.11 257.29 317.3 252.15 325.61 222.68 342.02 228.41 334.11 257.29"/><polygon class="cls-1" points="351.12 262.04 334.11 257.29 342.02 228.41 359.23 233.56 351.12 262.04"/><polygon class="cls-1" points="367.74 266.59 351.12 262.04 359.23 233.56 376.64 237.71 367.74 266.59"/><polygon class="cls-1" points="9.52 201.71 25.94 206.32 16.84 236.26 0.16 231.12 9.52 201.71"/><polygon class="cls-1" points="42.49 211.53 25.94 206.32 16.84 236.26 33.78 241.2 42.49 211.53"/><polygon class="cls-1" points="59.37 216.22 42.49 211.53 33.78 241.2 50.27 245.95 59.37 216.22"/><polygon class="cls-1" points="75.92 221.09 59.37 216.22 50.27 245.95 67.08 250.83 75.92 221.09"/><polygon class="cls-1" points="93.06 225.91 75.92 221.09 67.08 250.83 84.09 255.84 93.06 225.91"/><polygon class="cls-1" points="109.67 230.79 93.06 225.91 84.09 255.84 100.97 260.46 109.67 230.79"/><polygon class="cls-1" points="126.16 235.93 109.67 230.79 100.97 260.46 117.72 265.6 126.16 235.93"/><polygon class="cls-1" points="143.17 241.2 126.16 235.93 117.72 265.6 134.6 269.95 143.17 241.2"/><polygon class="cls-1" points="160.05 245.95 143.17 241.2 134.6 269.95 151.48 275.09 160.05 245.95"/><polygon class="cls-1" points="177.19 250.83 160.05 245.95 151.48 275.09 168.62 279.58 177.19 250.83"/><polygon class="cls-1" points="194.07 255.58 177.19 250.83 168.62 279.58 185.5 284.46 194.07 255.58"/><polygon class="cls-1" points="210.68 260.46 194.07 255.58 185.5 284.46 203.04 289.6 210.68 260.46"/><polygon class="cls-1" points="227.56 265.6 210.68 260.46 203.04 289.6 219.91 294.74 227.56 265.6"/><polygon class="cls-1" points="244.31 269.95 227.56 265.6 219.91 294.74 236.53 299.09 244.31 269.95"/><polygon class="cls-1" points="261.32 275.09 244.31 269.95 236.53 299.09 253.54 303.58 261.32 275.09"/><polygon class="cls-1" points="278.2 279.58 261.32 275.09 253.54 303.58 270.82 308.32 278.2 279.58"/><polygon class="cls-1" points="294.95 284.46 278.2 279.58 270.82 308.32 287.43 312.68 294.95 284.46"/><polygon class="cls-1" points="308.2 289.6 320.93 301.07 302.73 324.54 287.43 312.68 308.2 289.6"/><polygon class="cls-1" points="334.11 312.68 320.93 301.07 302.73 324.54 317.3 335.62 334.11 312.68"/><polygon class="cls-1" points="349.15 324.54 334.11 312.68 317.3 335.62 329.66 346.96 349.15 324.54"/><polygon class="cls-1" points="362.6 335.62 349.15 324.54 329.66 346.96 344.66 359.36 362.6 335.62"/><polygon class="cls-1" points="376.64 345.38 362.6 335.62 344.66 359.36 357.85 369.64 376.64 345.38"/><polygon class="cls-1" points="389.5 357.25 376.64 345.38 357.85 369.64 371.3 381.25 389.5 357.25"/><polygon class="cls-1" points="389.5 307.07 400.38 291.71 424.36 309.77 413.73 325.86 389.5 307.07"/><polygon class="cls-1" points="409.81 277.6 400.38 291.71 424.36 309.77 434.99 296.13 409.81 277.6"/><polygon class="cls-1" points="418.38 263.88 409.81 277.6 434.99 296.13 445.67 283.4 418.38 263.88"/><polygon class="cls-1" points="429.58 248.85 418.38 263.88 445.67 283.4 454.9 266.59 429.58 248.85"/><polygon class="cls-1" points="439.54 235.34 429.58 248.85 454.9 266.59 465.45 253.07 439.54 235.34"/><polygon class="cls-1" points="450.16 220.7 439.54 235.34 465.45 253.07 475.48 237.71 450.16 220.7"/><polygon class="cls-1" points="465.45 203.69 453.32 216.05 475.48 237.71 487.87 224.59 465.45 203.69"/><polygon class="cls-1" points="475.48 191.09 465.45 203.69 487.87 224.59 499.97 212.46 475.48 191.09"/><polygon class="cls-1" points="487.87 178.37 475.48 191.09 499.97 212.46 510.55 199.34 487.87 178.37"/><polygon class="cls-1" points="499.28 165.41 487.87 178.37 510.55 199.34 521.83 185.88 499.28 165.41"/><polygon class="cls-1" points="510.55 153.45 499.28 165.41 521.83 185.88 534.39 174.02 510.55 153.45"/></g></g></svg>