<svg xmlns="http://www.w3.org/2000/svg" viewBox="0 0 508.42 174.56"><defs><style>.cls-1{fill:#574545;}</style></defs><g id="Capa_2" data-name="Capa 2"><g id="Capa_1-2" data-name="Capa 1"><path class="cls-1" d="M176.48,174.35h-2L170,165.73h-4.57v8.61h-1.75V155.28h6.85a5.24,5.24,0,0,1,5.22,5.23,5.1,5.1,0,0,1-1.11,3.22,5,5,0,0,1-2.76,1.83ZM170.57,164a3.47,3.47,0,0,0,0-6.94h-5.1V164Z"/><path class="cls-1" d="M192.84,155.28V157h-8v6.87h6.31v1.76h-6.31v6.93h8v1.75h-9.73V155.28Z"/><path class="cls-1" d="M204.65,174.52a7.14,7.14,0,0,1-3.38-1,5.16,5.16,0,0,1-2.38-2.69l1.65-.6a3.47,3.47,0,0,0,1.72,1.84,5.74,5.74,0,0,0,2.47.68,4.85,4.85,0,0,0,3.4-1,3.07,3.07,0,0,0,1.29-2.31q.11-2.49-4.57-3.81A9.69,9.69,0,0,1,200,163a4,4,0,0,1-1-2.89,4.72,4.72,0,0,1,2.31-4.07,7.29,7.29,0,0,1,4.21-.94,6.6,6.6,0,0,1,4.75,2L209,158.35a4.92,4.92,0,0,0-3.54-1.5,5.72,5.72,0,0,0-3.22.69,3.1,3.1,0,0,0-1.47,2.66c-.07,1.62,1.45,2.88,4.57,3.75a9.55,9.55,0,0,1,4.82,2.65,4.1,4.1,0,0,1,1,2.92,4.78,4.78,0,0,1-1.94,3.61,6.5,6.5,0,0,1-4.23,1.41Z"/><path class="cls-1" d="M217.46,155.19h1.77v19.16h-1.77Z"/><path class="cls-1" d="M226.43,174.35V155.28h4.69a9.54,9.54,0,0,1,0,19.07Zm1.74-1.74h3a7.8,7.8,0,0,0,0-15.59h-3Z"/><path class="cls-1" d="M257.41,155.28V157h-8v6.87h6.3v1.76h-6.3v6.93h8v1.75h-9.73V155.28Z"/><path class="cls-1" d="M277.54,155.28v19.07h-1.89l-9.5-15.89v15.89h-1.76V155.28h1.9l9.5,15.9v-15.9Z"/><path class="cls-1" d="M294.21,172.78a7.84,7.84,0,0,0,4.33-1.28v2a9.49,9.49,0,0,1-4.33,1,9.72,9.72,0,0,1,0-19.44,9.6,9.6,0,0,1,4.33,1v2a7.77,7.77,0,0,0-4.33-1.29,8,8,0,1,0,0,15.93Z"/><path class="cls-1" d="M304.84,155.19h1.76v19.16h-1.76Z"/><path class="cls-1" d="M327.13,155.28v19.07h-1.74v-4.77h-7.57l-3,4.77h-2.07l12.06-19.07Zm-8.21,12.55h6.47V157.62Z"/><path class="cls-1" d="M336.67,155.28V172.6h8.85v1.75H334.91V155.28Z"/><path class="cls-1" d="M13.46,155.28l-5.85,9.95v9.12H5.86v-9.12L0,155.28H2l4.7,8,4.72-8Z"/><path class="cls-1" d="M22,172.64A6.32,6.32,0,0,1,20.08,168V155.32h1.76V168a4.82,4.82,0,0,0,8.23,3.41A4.67,4.67,0,0,0,31.48,168V155.32h1.75V168a6.57,6.57,0,0,1-6.57,6.57A6.33,6.33,0,0,1,22,172.64Z"/><path class="cls-1" d="M49.65,172.78A7.86,7.86,0,0,0,54,171.5v2a9.49,9.49,0,0,1-4.33,1,9.72,9.72,0,0,1,0-19.44,9.6,9.6,0,0,1,4.33,1v2a7.79,7.79,0,0,0-4.33-1.29,8,8,0,1,0,0,15.93Z"/><path class="cls-1" d="M471.72,155.28v19.06H470V159.52l-6.42,14.83h-1.91l-6.4-14.83v14.82H453.5V155.28h1.83l7.28,16.87,7.29-16.87Z"/><path class="cls-1" d="M489.14,155.28V157h-8v6.87h6.31v1.76h-6.31v6.93h8v1.75h-9.73V155.28Z"/><path class="cls-1" d="M508.42,155.28,502.71,165l5.51,9.36h-2l-4.5-7.63-4.49,7.63h-2l5.51-9.36L495,155.28h2l4.71,8,4.71-8Z"/><path class="cls-1" d="M190.68,110.87a5.59,5.59,0,0,1-5.91,1.49c-1.84-.79-2.85-2.81-2.85-5.7V58c0-10.19-2.84-18.09-8.43-23.51-7.47-7.21-18.18-8.43-25.87-8.16C133.26,27,123,31.93,118.68,40.21a10.6,10.6,0,0,0-.75,8.13,7.13,7.13,0,0,0,4,4.18,7.34,7.34,0,0,0,6.93-.6c2.27-1.54,3.52-4.45,3.52-8.19a11.34,11.34,0,0,1,3.24-8.37c2.91-3,7.57-4.68,12.79-4.68,12.68,0,19.56,4,19.56,25.13v8.84c-2.89.16-13.3.78-28.55,2.18-18.12,1.78-29.91,13.32-29.36,28.72.39,14,12.47,24,28.8,24h.46c15.27,0,24.46-8.27,28.65-17.26v4.16c0,8.45,4.92,13.1,13.85,13.1A13,13,0,0,0,193,113.19l.25-.47-1.81-2.53ZM168,69v14c0,14.24-7.41,29.75-23.67,30.14-12.49.36-20.85-6.89-21.2-18.49-.55-12.66,7.77-21.64,21.71-23.42C156.72,69.63,165.28,69.1,168,69Z"/><path class="cls-1" d="M250.13,26.37c-11.39.32-20.58,7.69-26.22,20.88V26.37h-2.34l-20.16,6.16v3.65l.79.07c5.86.47,7.93,3.31,7.93,10.84V103c0,7.63-2,10.36-7.93,10.84l-.79.07v3.87h31.41v-3.88l-.79-.06c-6.07-.48-8.12-3.21-8.12-10.84V70.29c0-13.71,4.11-25.41,11.28-32.12,3.65-3.42,7.83-5.16,11.75-4.89,4.82.34,7,3,7.37,8.83a7.34,7.34,0,0,0,3.79,6.25,7.76,7.76,0,0,0,7.7-.16c4-2.3,4.43-7.93,2.58-12.05C265.61,30,258.42,26.26,250.13,26.37Z"/><path class="cls-1" d="M290.24,19.72c6,0,10.14-4.1,10.14-9.95S296.21,0,290.24,0c-4.79,0-9.95,3.06-9.95,9.77A9.64,9.64,0,0,0,290.24,19.72Z"/><path class="cls-1" d="M298.71,103V26.37h-2.34l-20.16,6.16v3.65l.79.07c5.86.47,7.93,3.31,7.93,10.84V103c0,7.53-2.07,10.37-7.93,10.84l-.79.07v3.87h31.41v-3.88l-.79-.06C300.83,113.32,298.71,110.48,298.71,103Z"/><path class="cls-1" d="M396.57,110.19l-.71.68a5.59,5.59,0,0,1-5.91,1.49c-1.84-.79-2.85-2.81-2.85-5.7V58c0-10.19-2.84-18.09-8.44-23.51-7.46-7.21-18.18-8.43-25.87-8.16-14.35.65-24.63,5.56-28.94,13.84a10.6,10.6,0,0,0-.75,8.13,7.13,7.13,0,0,0,4,4.18,7.37,7.37,0,0,0,6.94-.6c2.26-1.54,3.51-4.45,3.51-8.19a11.35,11.35,0,0,1,3.25-8.37c2.91-3,7.57-4.68,12.78-4.68,12.69,0,19.56,4,19.56,25.13v8.84c-2.89.16-13.29.78-28.55,2.18-18.11,1.78-29.91,13.32-29.35,28.72.38,14,12.47,24,28.8,24h.45c15.27,0,24.46-8.27,28.65-17.26v4.16c0,8.45,4.92,13.1,13.85,13.1a13,13,0,0,0,11.15-6.39l.25-.47ZM373.13,69v14c0,14.24-7.4,29.75-23.66,30.14-12.61.32-20.86-6.89-21.21-18.49C327.72,81.9,336,72.92,350,71.14,361.89,69.63,370.45,69.1,373.13,69Z"/><path class="cls-1" d="M128,15.45a16.09,16.09,0,0,1,7.91-10.08,16.45,16.45,0,0,1,7-1.95,16.86,16.86,0,0,1,7.27,1.37l1.59.72,1,.46a15.65,15.65,0,0,0,1.9.83,14.46,14.46,0,0,0,3.86.77c2.74.1,6.12-1,9.83-3a12.71,12.71,0,0,1-8.15,10.23,15.21,15.21,0,0,1-7.48.75,19.93,19.93,0,0,1-3.51-1l-1.65-.69-1-.41a14.59,14.59,0,0,0-8-1.16A42.86,42.86,0,0,0,128,15.45Z"/></g></g></svg>